<svg id="Group_85" data-name="Group 85" xmlns="http://www.w3.org/2000/svg" xmlns:xlink="http://www.w3.org/1999/xlink" width="131.501" height="120.467" viewBox="0 0 131.501 120.467">
  <defs>
    <filter id="Path_61" x="49.572" y="32.393" width="81.929" height="88.074" filterUnits="userSpaceOnUse">
      <feOffset dx="14" dy="3" input="SourceAlpha"/>
      <feGaussianBlur stdDeviation="7" result="blur"/>
      <feFlood flood-opacity="0.161"/>
      <feComposite operator="in" in2="blur"/>
      <feComposite in="SourceGraphic"/>
    </filter>
    <filter id="Path_64" x="59.854" y="9.353" width="65.598" height="71.636" filterUnits="userSpaceOnUse">
      <feOffset dx="13" dy="3" input="SourceAlpha"/>
      <feGaussianBlur stdDeviation="7.5" result="blur-2"/>
      <feFlood flood-opacity="0.161"/>
      <feComposite operator="in" in2="blur-2"/>
      <feComposite in="SourceGraphic"/>
    </filter>
  </defs>
  <ellipse id="Ellipse_4" data-name="Ellipse 4" cx="4.768" cy="4.474" rx="4.768" ry="4.474" transform="translate(33.736 6.959)" fill="#fd6584"/>
  <path id="Path_33" data-name="Path 33" d="M547.193,222.124a2.33,2.33,0,0,0-2-1.557h-.032a.271.271,0,0,0-.039-.008,6.085,6.085,0,0,0-4.566,1.307,4.034,4.034,0,0,0-1.041,1.347,2.363,2.363,0,0,0-1.934-.885,2.327,2.327,0,0,0-2.107,1.593.25.25,0,0,0,.124.283,1.223,1.223,0,0,0,.5.238c.394.079.793.151,1.191.216q1.172.191,2.345.31.779.078,1.562.124c1.079.064,2.162.079,3.243.047a3.917,3.917,0,0,0,1.539-.255,2.246,2.246,0,0,0,.883-.722A2.31,2.31,0,0,0,547.193,222.124Z" transform="translate(-498.019 -212.809)" fill="#e6e6e6"/>
  <path id="Path_34" data-name="Path 34" d="M491.8,258.285a2.16,2.16,0,0,0-.1-.553,2.335,2.335,0,0,0-2-1.557h-.031l-.042-.008a6.3,6.3,0,0,0-2.623.253,4.784,4.784,0,0,0-2.984,2.4,2.364,2.364,0,0,0-1.935-.885,2.327,2.327,0,0,0-2.107,1.593.254.254,0,0,0,.124.283,1.234,1.234,0,0,0,.5.238c.4.079.793.151,1.193.216q1.172.191,2.345.31a37.133,37.133,0,0,0,4.808.171,3.922,3.922,0,0,0,1.539-.255,2.244,2.244,0,0,0,.882-.722,2.281,2.281,0,0,0,.431-1.484Z" transform="translate(-452.434 -242.452)" fill="#e6e6e6"/>
  <path id="Path_35" data-name="Path 35" d="M400.413,246.786h-4.346V183.12c-.293-.2-.587-.4-.886-.6L395,182.4a52.7,52.7,0,0,0-11.073-5.519l-.843,10.908h-5.424V175.057c-.354-.082-.708-.159-1.066-.231v12.968H356.122v-13.3c-.355.062-.711.126-1.066.194V187.8h-5.6l-.884-11.439a52.881,52.881,0,0,0-10.854,4.936c-.118.07-.236.141-.354.214-.238.144-.475.292-.709.441v64.841h-6.12a4.88,4.88,0,0,0-3.967,1.975,4.256,4.256,0,0,0-.477,4.189,4.173,4.173,0,0,0,.312.6,4.558,4.558,0,0,0,.539.7,4.92,4.92,0,0,0,3.593,1.526h69.877a4.5,4.5,0,1,0,0-8.988ZM381.92,202.937l-3.381,43.849H354l-3.381-43.849Zm1.091-14.145-.833,10.817h-4.512V188.792Zm-6.41,0v10.817h-8.149a1.967,1.967,0,0,0-1.736-1h-1.066a1.967,1.967,0,0,0-1.736,1h-7.794V188.792Zm-21.543,10.817h-4.689l-.833-10.817h5.525Z" transform="translate(-325.747 -174.494)" fill="#f2f2f2"/>
  <path id="Path_36" data-name="Path 36" d="M328.114,649.216a50.006,50.006,0,0,0,5.022,4.851l67.782.168a50.01,50.01,0,0,0,5.022-4.851Z" transform="translate(-327.691 -569.678)" fill="#3f3d56"/>
  <path id="Path_37" data-name="Path 37" d="M519.8,549.526V566.71h12.83V549.526a.583.583,0,0,0-.434-.553.6.6,0,0,0-.184-.027H520.423a.64.64,0,0,0-.44.168A.563.563,0,0,0,519.8,549.526Zm5.009,5.9a1.372,1.372,0,0,1,2.739,0v1.994a1.372,1.372,0,0,1-2.739,0Z" transform="translate(-485.151 -486.209)" fill="#2f2e41"/>
  <path id="Path_38" data-name="Path 38" d="M519.584,651.686v1.657a.337.337,0,0,0,.344.325h12.22a.336.336,0,0,0,.344-.325v-1.657Z" transform="translate(-484.97 -571.734)" fill="#3f3d56"/>
  <path id="Path_39" data-name="Path 39" d="M406.774,390.4v31.376a1.561,1.561,0,0,0,1.607,1.508h49.557a1.561,1.561,0,0,0,1.607-1.508V390.4a1.562,1.562,0,0,0-1.607-1.506H408.381A1.562,1.562,0,0,0,406.774,390.4Z" transform="translate(-392.304 -352.976)" fill="#3f3d56"/>
  <path id="Path_40" data-name="Path 40" d="M413.284,396.2v30.6a.835.835,0,0,0,.859.806H462.87a.835.835,0,0,0,.859-.806V396.2a.836.836,0,0,0-.859-.808H414.143a.836.836,0,0,0-.859.808Z" transform="translate(-397.652 -358.387)" fill="#6c63ff"/>
  <path id="Path_41" data-name="Path 41" d="M468.372,651.836a.54.54,0,0,0,.415.186h28.988a.547.547,0,0,0,.412-.184.478.478,0,0,0,.109-.416l-.45-2.006a.511.511,0,0,0-.332-.364.55.55,0,0,0-.19-.034h-28.09a.544.544,0,0,0-.19.034.511.511,0,0,0-.333.364l-.45,2.006A.477.477,0,0,0,468.372,651.836Z" transform="translate(-442.805 -569.511)" fill="#2f2e41"/>
  <path id="Path_42" data-name="Path 42" d="M471.288,651.516a.079.079,0,0,0-.026,0,.088.088,0,0,0-.059.059l-.45,2.007a.076.076,0,0,0,.018.066h0a.082.082,0,0,0,.066.029h28.988a.085.085,0,0,0,.066-.029.074.074,0,0,0,.019-.067l-.451-2.008a.085.085,0,0,0-.054-.058.083.083,0,0,0-.03-.006Z" transform="translate(-444.857 -571.593)" fill="#fff"/>
  <path id="Path_43" data-name="Path 43" d="M426.033,418.861h45.591a.17.17,0,1,0,0-.34H426.033a.17.17,0,1,0,0,.34Z" transform="translate(-407.975 -377.637)" fill="#3f3d56"/>
  <ellipse id="Ellipse_5" data-name="Ellipse 5" cx="1.063" cy="1.019" rx="1.063" ry="1.019" transform="translate(59.485 37.977)" fill="#3f3d56"/>
  <ellipse id="Ellipse_6" data-name="Ellipse 6" cx="1.063" cy="1.019" rx="1.063" ry="1.019" transform="translate(55.815 37.977)" fill="#3f3d56"/>
  <ellipse id="Ellipse_7" data-name="Ellipse 7" cx="1.063" cy="1.019" rx="1.063" ry="1.019" transform="translate(52.143 37.977)" fill="#3f3d56"/>
  <path id="Path_44" data-name="Path 44" d="M438.156,402.862a.177.177,0,0,0,.057.13.2.2,0,0,0,.138.054h2.607a.185.185,0,1,0,0-.37h-2.607a.191.191,0,0,0-.2.186Z" transform="translate(-418.082 -364.447)" fill="#3f3d56"/>
  <path id="Path_45" data-name="Path 45" d="M438.156,407.012a.177.177,0,0,0,.057.13.2.2,0,0,0,.138.054h2.607a.185.185,0,1,0,0-.37h-2.607a.191.191,0,0,0-.2.186Z" transform="translate(-418.082 -367.901)" fill="#3f3d56"/>
  <path id="Path_46" data-name="Path 46" d="M438.156,411.16a.191.191,0,0,0,.2.186h2.607a.185.185,0,1,0,0-.37h-2.607a.2.2,0,0,0-.138.054.177.177,0,0,0-.057.13Z" transform="translate(-418.082 -371.356)" fill="#3f3d56"/>
  <path id="Path_47" data-name="Path 47" d="M489.621,451.546H457.615a1.541,1.541,0,0,0-1.586,1.488v14.617a1.541,1.541,0,0,0,1.586,1.488h32.007a1.542,1.542,0,0,0,1.586-1.488V453.034A1.541,1.541,0,0,0,489.621,451.546Zm1.229,1.488V457.3H479.6v-5.418h10.018a1.194,1.194,0,0,1,1.229,1.153Zm-22.857,10.017v-5.418h11.25v5.418Zm11.25.335V468.8h-11.25v-5.418Zm-11.607-.335h-11.25v-5.418h11.25Zm.357-5.753V451.88h11.25v5.42Zm11.607.335h11.248v5.418H479.6Zm-21.985-5.753h10.018v5.42H456.386v-4.264a1.194,1.194,0,0,1,1.229-1.153Zm-1.229,15.77v-4.264h11.25V468.8H457.618a1.194,1.194,0,0,1-1.232-1.149Zm33.235,1.153H479.6v-5.418h11.245v4.264a1.194,1.194,0,0,1-1.229,1.153Z" transform="translate(-432.763 -405.129)" fill="#3f3d56"/>
  <path id="Path_48" data-name="Path 48" d="M510.894,468.23a1.671,1.671,0,0,0-1.282-1.086,1.772,1.772,0,0,0-1.635.522,51.491,51.491,0,0,0-4.588,3.172v.017l3.424-.222a6.229,6.229,0,0,0,2.407-.48,2.2,2.2,0,0,1,.859-.337,1.412,1.412,0,0,1,1,.506c1.578,1.577,2.035,3.988,3.8,5.373a51.5,51.5,0,0,0-3.985-7.465Z" transform="translate(-471.667 -418.102)" fill="#fff"/>
  <path id="Path_49" data-name="Path 49" d="M503.164,476.492c-.175-.207-.246-.255-.418-.464q-2.1-2.551-3.952-5.275-1.257-1.85-2.388-3.771-.539-.913-1.048-1.841-.4-.719-.773-1.447c-.073-.139-.142-.278-.213-.417-.164-.328-.32-.658-.5-.982a2.723,2.723,0,0,0-.8-1,1.134,1.134,0,0,0-.567-.2,1.66,1.66,0,0,0-.822.221,26.554,26.554,0,0,0-5.2,3.364,26.036,26.036,0,0,0-4.224,4.4c-.037.05-.126,0-.088-.048q.223-.3.454-.584a26.612,26.612,0,0,1,6.948-6.081q.676-.411,1.377-.783c.236-.125.472-.249.713-.365a1.821,1.821,0,0,1,.756-.22c.918-.013,1.392.961,1.719,1.617q.154.31.311.617.6,1.168,1.236,2.315.4.708.809,1.408,1.285,2.179,2.733,4.271c1.279,1.847,2.546,3.478,4,5.2C503.276,476.472,503.2,476.54,503.164,476.492Z" transform="translate(-454.238 -412.99)" fill="#fff"/>
  <path id="Path_50" data-name="Path 50" d="M467.958,472.254l-.16-.167a4.664,4.664,0,0,0-1.458-1.125,2.23,2.23,0,0,0-.886-.193,2.67,2.67,0,0,0-.92.188c-.139.052-.274.111-.407.174-.152.072-.3.149-.451.226q-.42.218-.828.455-.813.472-1.575,1.015-.4.282-.774.582-.353.279-.691.573c-.048.042-.12-.026-.072-.068l.18-.154q.255-.216.518-.424.48-.379.984-.73.783-.545,1.621-1.016.419-.235.853-.45c.086-.043.174-.086.263-.126a4.336,4.336,0,0,1,.625-.239,2.36,2.36,0,0,1,.943-.087,2.568,2.568,0,0,1,.871.283,5.774,5.774,0,0,1,1.443,1.213C468.073,472.232,468,472.3,467.958,472.254Z" transform="translate(-435.795 -421.054)" fill="#fff"/>
  <path id="Path_51" data-name="Path 51" d="M571.02,502.007l1.366-.469.679-.233q.329-.125.67-.217a1.124,1.124,0,0,1,.606.007,1.415,1.415,0,0,1,.473.275,3.717,3.717,0,0,1,.388.389c.148.167.293.335.439.5q.9,1.039,1.8,2.086t1.774,2.1q.883,1.059,1.755,2.127l.213.262c.039.048.128,0,.088-.048q-.878-1.079-1.768-2.149t-1.8-2.136q-.9-1.063-1.821-2.118l-.457-.525c-.129-.147-.256-.3-.4-.434a1.463,1.463,0,0,0-.972-.48,1.98,1.98,0,0,0-.661.136l-.684.235-1.377.472-.344.118C570.932,501.935,570.958,502.028,571.02,502.007Z" transform="translate(-527.17 -446.257)" fill="#fff"/>
  <path id="Path_52" data-name="Path 52" d="M485.569,474.621a2.33,2.33,0,0,0-2.222.149,33.452,33.452,0,0,1,3.607.79C486.461,475.289,486.076,474.865,485.569,474.621Z" transform="translate(-455.204 -424.159)" fill="#fff"/>
  <path id="Path_53" data-name="Path 53" d="M482.694,476.563l-.133.1a1.66,1.66,0,0,1,.141-.1Z" transform="translate(-454.557 -425.954)" fill="#fff"/>
  <path id="Path_54" data-name="Path 54" d="M589.187,505.4a1.124,1.124,0,0,0-.482-.377l-.187.007a20.45,20.45,0,0,0,5.676,6.089Z" transform="translate(-541.594 -449.643)" fill="#fff"/>
  <ellipse id="Ellipse_8" data-name="Ellipse 8" cx="1.082" cy="1.015" rx="1.082" ry="1.015" transform="translate(45.632 51.128)" fill="#fff"/>
  <path id="Path_55" data-name="Path 55" d="M671.572,468.137a.781.781,0,0,0,.8-.754V451.8a.805.805,0,0,0-1.607,0v15.583a.781.781,0,0,0,.8.754Z" transform="translate(-609.157 -404.712)" fill="#3f3d56"/>
  <path id="Path_56" data-name="Path 56" d="M671.572,530.986a.781.781,0,0,0,.8-.754v-3.3a1.036,1.036,0,0,0-1.607,0v3.3a.781.781,0,0,0,.8.754Z" transform="translate(-609.157 -467.562)" fill="#2f2e41"/>
  <path id="Path_57" data-name="Path 57" d="M671.292,510.321a.84.84,0,0,0,.864-.811v-3.554a1.115,1.115,0,0,0-1.729,0v3.554a.84.84,0,0,0,.864.811Z" transform="translate(-608.878 -450.081)" fill="#6c63ff"/>
  <path id="Path_58" data-name="Path 58" d="M672.369,512.885a.612.612,0,0,0,.631-.591V509.7a.813.813,0,0,0-1.261,0v2.592A.612.612,0,0,0,672.369,512.885Z" transform="translate(-609.954 -453.291)" fill="#3f3d56"/>
  <path id="Path_59" data-name="Path 59" d="M535.351,615.092a.642.642,0,0,1-.057-.946l7.021-7.371a.748.748,0,0,1,1.009-.054.642.642,0,0,1,.057.946l-7.021,7.371a.748.748,0,0,1-1.009.053Z" transform="translate(-497.725 -534.161)" fill="#6c63ff"/>
  <path id="Path_60" data-name="Path 60" d="M787.591,564.182c0,1.222-.307,2.156-.27,2.9a53.521,53.521,0,0,1-6.482,2.182c-.25.067-.5.131-.752.194-1.362-3.914-2.727-7.5-3.264-7.878-1.23-.866-1.847,2.718-1.847,1.852s.616-.866-.922-2.021-.616-6.35-.616-6.35l-2.154-5.2,2.409-8.287,3.128-10.765H779.9s.092.062.243.178c.77.59,3.091,2.56,2.834,4.73a34.167,34.167,0,0,0,.393,5.03c.907,7.558,2.992,15.775,2.992,17.943C786.361,561.583,787.591,562.449,787.591,564.182Z" transform="translate(-691.724 -471.116)" fill="#e6e6e6"/>
  <g transform="matrix(1, 0, 0, 1, 0, 0)" filter="url(#Path_61)">
    <path id="Path_61-2" data-name="Path 61" d="M679.237,494.5a.056.056,0,0,0-.008-.022,4.375,4.375,0,0,0-.241-.509c-.52-.916.03-2.324-.555-3.879a11.225,11.225,0,0,0-3.791-5.338l-.151-.119h0a44.5,44.5,0,0,0-4.179-2.694q-.528-.316-1.1-.662c-.492-.3-.466-1.285-.438-2.331a4.866,4.866,0,0,0-.541-3.115l-.039-.049-.063-.015a28.581,28.581,0,0,0-6.325-.457h0a13.206,13.206,0,0,0-2.664.367c-.064.017-.129.034-.191.054s-.1.027-.145.042l-.039.013-.031.027a3.85,3.85,0,0,0-.788,2.57h0q-.019.281-.032.563a4.223,4.223,0,0,1-.489,2.359,10.266,10.266,0,0,1-3.119,2.252,8.268,8.268,0,0,1-3.325.828l-.169-.005-.016.158c-1.224,2.19-1.179,7.84-1.216,13.89q0,.505-.008,1.015c-.021,2.818-.079,5.685-.3,8.3-.1,1.122-.225,2.2-.394,3.2-.825,4.888-4.562.829-6.35,4.082a3.927,3.927,0,0,0,.294.93c.206.114.417.225.626.335q1.385.726,2.832,1.356c.053.023.107.047.161.069a44.046,44.046,0,0,0,5.435,1.947l1.091.3a44.26,44.26,0,0,0,9.931,1.4h.042a54.7,54.7,0,0,0,11.757-1.59l.161-.04c.252-.064.5-.127.752-.194a53.572,53.572,0,0,0,6.482-2.182,1.421,1.421,0,0,0,.023.219.468.468,0,0,0,.011.07c0-.027.008-.054.009-.08.011-.079.019-.159.029-.24a49.124,49.124,0,0,0-2.92-22.825Z" transform="translate(-585.95 -424.9)" fill="#3f3d56"/>
  </g>
  <path id="Path_62" data-name="Path 62" d="M705.076,374.723a10.271,10.271,0,0,0,11.534,4.514,9.444,9.444,0,0,0,7.216-9.573,9.626,9.626,0,0,0-8.378-8.7,10.118,10.118,0,0,0-10.88,5.769c-.046.107-.087.215-.128.326a8.852,8.852,0,0,0,.636,7.665Z" transform="translate(-636.336 -329.622)" fill="#ffb6b6"/>
  <path id="Path_63" data-name="Path 63" d="M688.079,358.651c.426-1.129.243-.541.677-1.666a2.644,2.644,0,0,0,.124,1.666h11.9v-6.493c-3.487-1.3-6.9-2.4-8.952,0a6.717,6.717,0,0,0-6.92,6.492Z" transform="translate(-620.771 -321.215)" fill="#2f2e41"/>
  <g transform="matrix(1, 0, 0, 1, 0, 0)" filter="url(#Path_64)">
    <path id="Path_64-2" data-name="Path 64" d="M716.318,373.324c.01-.12.022-.245.042-.365a12.03,12.03,0,0,1,.774-2.576c.343-.906.691-1.816,1.039-2.722a7.352,7.352,0,0,0,.389,4.947c2.009-1.469.746-4.827,3.368-4.827,6.316,0,12.814-4.8,12.814-10.735s-2.709-10.358-9.029-10.358-11.446,2.714-11.569,8.64C721.929,357.045,714.848,372.723,716.318,373.324Z" transform="translate(-644.79 -317.83)" fill="#2f2e41"/>
  </g>
  <ellipse id="Ellipse_9" data-name="Ellipse 9" cx="7.323" cy="6.871" rx="7.323" ry="6.871" transform="translate(81.84 24.556)" fill="#2f2e41"/>
  <path id="Path_65" data-name="Path 65" d="M677.7,591.019q-.037.53-.066,1.129c-.378,7.522-.052,17.647-2.6,23.141q-.853.44-1.732.841l-.064.03c-.157.072-.314.142-.471.209a.055.055,0,0,1-.019.01,44.388,44.388,0,0,1-5.323,1.962c-.224.067-.449.131-.674.194l-.145.04a44.3,44.3,0,0,1-10.544,1.59l-.545.012h-.782q-.605,0-1.205-.017a44.256,44.256,0,0,1-9.931-1.4c-.366-.094-.729-.193-1.091-.3a44.053,44.053,0,0,1-5.435-1.947l-.161-.069q-1.441-.628-2.832-1.356c-.213-.111-.42-.221-.626-.335a3.925,3.925,0,0,1-.294-.93c-.405-1.828-.73-.595-.959-4.4-.213-3.487-.349-6.984-.4-8.983-.016-.533-.021-.96-.023-1.252.19-1.27,3.232-2.711,7.673-4.08q.63-.194,1.3-.385c1.2-.347,2.482-.687,3.822-1.015,3.41-.838,7.2-1.607,10.957-2.242,1.855-.312,3.7-.591,5.5-.829,3.148-.419,6.127-.709,8.675-.828q.366-.018.719-.029.38-.015.746-.022C674.823,589.7,677.33,590.061,677.7,591.019Z" transform="translate(-577.121 -520.191)" fill="#2f2e41"/>
  <path id="Path_66" data-name="Path 66" d="M677.7,591.019q-.037.53-.066,1.129c-2.782-2.812-32.754,9.748-45.442,17.293-.213-3.487-.349-6.984-.4-8.983-.016-.533-.021-.96-.023-1.252.19-1.27,3.232-2.711,7.673-4.08q.63-.194,1.3-.385c1.2-.347,2.482-.687,3.822-1.015,3.41-.838,7.2-1.607,10.957-2.242,1.855-.312,3.7-.591,5.5-.829,3.148-.419,6.127-.709,8.675-.828q.366-.018.719-.029.38-.015.746-.022C674.823,589.7,677.331,590.061,677.7,591.019Z" transform="translate(-577.121 -520.191)" opacity="0.2"/>
  <path id="Path_67" data-name="Path 67" d="M544.491,625.666a3.223,3.223,0,0,0,4.742.118L559.4,629.7l-1.1-5.261-9.485-2.915a3.263,3.263,0,0,0-4.117.271,2.787,2.787,0,0,0-.208,3.867Z" transform="translate(-504.865 -546.122)" fill="#ffb6b6"/>
  <path id="Path_68" data-name="Path 68" d="M610.51,518.482l-.055-.005-5.93.4a5.426,5.426,0,0,0-3.851,1.956,4.849,4.849,0,0,0-.549.837h0a4.717,4.717,0,0,0-.438,3.165l2.792,13.187-6.714-.573-2.451.393-2.894-1.1-5.937.095-.137.427-1.246,3.874-.1.3,9.067,5.361,2.629-.75,1.238.892H596l2.451.045,10.473.193,2.854-4.743.448-.746c3.325-6.988,4.145-11.867,3.885-15.228a10.626,10.626,0,0,0-1.1-4.143,7.336,7.336,0,0,0-4.493-3.837Z" transform="translate(-537.056 -460.844)" fill="#3f3d56"/>
  <path id="Path_69" data-name="Path 69" d="M779.294,322.1a8.3,8.3,0,0,1-6.1-5.057,14.653,14.653,0,0,0-1.313-3.494,18.324,18.324,0,0,0,2.617-4.615c.247-.637.825-1.794-.155-2.144-.78-.279-1.667.395-2.131.926a3.451,3.451,0,0,0-.738,1.379l-.479-1.983a.277.277,0,0,0-.329-.176,3,3,0,0,0-2.42,2.542,2.462,2.462,0,0,0,.421,1.763,7.185,7.185,0,0,0,1.62,1.476,4.7,4.7,0,0,1,1.485,1.676,15.523,15.523,0,0,1,.735,2.271,8.745,8.745,0,0,0,6.646,5.92C779.488,322.649,779.632,322.164,779.294,322.1Zm-7.383-12.016a2.782,2.782,0,0,1,.506-1.787,2.909,2.909,0,0,1,.688-.7,1.4,1.4,0,0,1,.971-.359c.439.087.262.547.169.824q-.184.549-.406,1.086a17.332,17.332,0,0,1-1,2.029c-.2.341-.406.676-.625,1l-.453-1.875a.209.209,0,0,0,.145-.223Zm-3.128.1a2.474,2.474,0,0,1,1.753-2.7l1.279,5.285c-.087.121-.178.241-.269.361-.023-.026-.046-.052-.07-.077-.892-.911-2.451-1.532-2.689-2.868Z" transform="translate(-689.206 -284.569)" fill="#6c63ff"/>
</svg>
